<?xml version="1.0" encoding="iso-8859-1"?>
<!-- Generator: Adobe Illustrator 19.0.0, SVG Export Plug-In . SVG Version: 6.00 Build 0)  -->
<svg version="1.1" id="Layer_1" xmlns="http://www.w3.org/2000/svg" xmlns:xlink="http://www.w3.org/1999/xlink" x="0px" y="0px"
	 viewBox="0 0 512 512" style="enable-background:new 0 0 512 512;" xml:space="preserve">
<path style="fill:#387896;" d="M505.751,6.249C501.75,2.247,496.324,0,490.665,0L21.332,0.028C9.55,0.028,0,9.582,0,21.362v469.305
	C0,502.45,9.552,512,21.333,512h469.333c11.782,0,21.333-9.55,21.333-21.333V21.333C512,15.674,509.753,10.25,505.751,6.249z"/>
<path style="fill:#275366;" d="M505.751,6.249C501.75,2.247,496.324,0,490.665,0L256,0.014V512h234.667
	c11.782,0,21.333-9.55,21.333-21.333V21.333C512,15.674,509.753,10.25,505.751,6.249z"/>
<g>
	<path style="fill:#D1F4FF;" d="M146.972,334.817c-30.652,0-48.95-18.78-48.95-50.241v-57.331c0-30.878,18.971-50.061,49.509-50.061
		c32.013,0,48.761,20.905,48.761,41.553c0,16.306-11.729,18.064-16.772,18.064c-10.822,0-16.206-7.283-16.741-14.502
		c-0.007-0.097-0.014-0.198-0.018-0.294c-0.4-8.667-4.813-12.203-15.231-12.203c-10.111,0-15.964,2.856-15.964,17.445v57.331
		c0,13.181,4.215,17.63,16.703,17.63c12.892,0,13.521-5.045,14.562-13.402c1.082-8.604,7.632-14.158,16.687-14.158
		c5.043,0,16.772,1.779,16.772,18.25C196.292,313.728,179.351,334.817,146.972,334.817z"/>
	<path style="fill:#D1F4FF;" d="M261.089,300.88c-8.988,0-16.03-6.635-16.03-15.104v-13.744h-13.744
		c-8.613,0-15.108-6.814-15.108-15.849c0-9.091,6.636-16.21,15.108-16.21h13.744v-13.373c0-8.388,7.342-15.475,16.03-15.475
		c8.839,0,16.03,6.942,16.03,15.475v13.373h13.375c8.533,0,15.475,7.273,15.475,16.21c0,8.74-6.942,15.849-15.475,15.849h-13.375
		v13.744C277.12,294.245,270.077,300.88,261.089,300.88z"/>
</g>
<g>
	<path style="fill:#A7E5FF;" d="M369.099,300.88c-8.988,0-16.03-6.635-16.03-15.104v-13.744h-13.747
		c-8.613,0-15.108-6.814-15.108-15.849c0-9.091,6.636-16.21,15.108-16.21h13.747v-13.373c0-8.388,7.341-15.475,16.03-15.475
		c8.839,0,16.03,6.942,16.03,15.475v13.373h13.375c8.532,0,15.472,7.273,15.472,16.21c0,8.74-6.94,15.849-15.472,15.849h-13.375
		v13.744C385.131,294.245,378.089,300.88,369.099,300.88z"/>
	<path style="fill:#A7E5FF;" d="M290.495,239.972H277.12v-13.373c0-8.533-7.192-15.475-16.03-15.475
		c-1.771,0-3.48,0.309-5.089,0.848v88.149c1.594,0.489,3.3,0.759,5.089,0.759c8.988,0,16.03-6.635,16.03-15.104v-13.744h13.375
		c8.533,0,15.475-7.11,15.475-15.849C305.97,247.245,299.028,239.972,290.495,239.972z"/>
</g>
<g>
</g>
<g>
</g>
<g>
</g>
<g>
</g>
<g>
</g>
<g>
</g>
<g>
</g>
<g>
</g>
<g>
</g>
<g>
</g>
<g>
</g>
<g>
</g>
<g>
</g>
<g>
</g>
<g>
</g>
</svg>
